<svg xmlns="http://www.w3.org/2000/svg" viewBox="0 0 128 128" role="img">
  <defs>
    <linearGradient id="g" x1="0" y1="0" x2="1" y2="1">
      <stop offset="0" stop-color="hsl(262 55% 68%)"/>
      <stop offset="1" stop-color="hsl(262 52% 46%)"/>
    </linearGradient>
  </defs>
  <rect width="128" height="128" fill="url(#g)"/>
  <circle cx="64" cy="46" r="27" fill="hsl(262 40% 26%)" opacity=".55"/>
  <path d="M64 19a27 27 0 0 1 27 27c0 6-1 11-3 15l7 19h-62l7-19c-2-4-3-9-3-15a27 27 0 0 1 27-27z" fill="hsl(262 40% 26%)" opacity=".55"/>
  <circle cx="64" cy="50" r="21" fill="hsl(262 45% 94%)"/>
  <path d="M64 75c-19 0-32 11-36 28-1 4-1 9-1 13v12h74v-12c0-4 0-9-1-13-4-17-17-28-36-28z" fill="hsl(262 45% 94%)"/>
</svg>
